<svg viewBox="0 0 16 16" xmlns="http://www.w3.org/2000/svg"><path d="M1,5 L1,13 C1,11.941162 2.964988,11.002076 4.5,11.002075 C6.035012,11.002075 8,12.058105 8,13 L8,5 C8,3.895431 6.052002,2.974609 4.5,2.974609 C2.947998,2.974609 1,3.895431 1,5 Z M2,5.4 C2,4.626801 3.391427,3.982227 4.5,3.982227 C5.608573,3.982227 7,4.626801 7,5.4 L7,11 C7,10.340674 5.596437,10.004822 4.5,10.004822 C3.403563,10.004822 2,10.258813 2,11 Z M8,5 C8,3.895431 9.947998,2.974609 11.5,2.974609 C13.052002,2.974609 15,3.895431 15,5 L15,13 C15,12.058105 13.035012,11.002075 11.5,11.002075 C9.964988,11.002076 8,11.941162 8,13 Z M9,5.4 L9,11 C9,10.258813 10.403563,10.004822 11.5,10.004822 C12.596437,10.004822 14,10.340674 14,11 L14,5.4 C14,4.626801 12.608573,3.982227 11.5,3.982227 C10.391427,3.982227 9,4.626801 9,5.4 Z M9,5.4"/></svg>