<svg viewBox="0 0 16 16" xmlns="http://www.w3.org/2000/svg"><g transform="translate(-48 -432)"><path d="m54.88 443.06v1.9409h2.3511v-1.9409zm1.1203 4.9409c-4.4183 0-8-3.5817-8-8s3.5817-8 8-8 8 3.5817 8 8-3.5817 8-8 8zm-2.43-12.49c-0.98357 0.5328-1.5069 1.4372-1.57 2.7132h2.2801c0-0.37162 0.12755-0.7298 0.38264-1.0745s0.6877-0.51712 1.2978-0.51712c0.62065 0 1.048 0.13991 1.2821 0.41974 0.23406 0.27983 0.35108 0.58988 0.35108 0.93015 0 0.2955-0.10519 0.56637-0.31558 0.81263l-0.45759 0.39624-0.57594 0.38281c-0.56805 0.37609-0.92045 0.70853-1.0572 0.99731s-0.22091 0.8115-0.25247 1.5682h2.1302c0.0052597-0.35818 0.039447-0.62234 0.10256-0.79248 0.099935-0.26864 0.30243-0.50369 0.6075-0.70517l0.56016-0.36938c0.56805-0.37609 0.952-0.68502 1.1519-0.9268 0.34188-0.39848 0.51282-0.88874 0.51282-1.4708 0-0.94919-0.39316-1.6655-1.1795-2.1491s-1.7738-0.72532-2.9625-0.72532c-0.90467 0-1.6673 0.17014-2.288 0.51041z" fill="#080"/></g></svg>
