<svg viewBox="0 0 64 64" xmlns="http://www.w3.org/2000/svg"><g transform="translate(232,478)"><path d="m-185.6-421.9h-19.3c-0.9 0-1.6-0.7-1.6-1.6 0-2.5-1.2-3.9-3-6.1-1-1.2-2.1-2.6-3.2-4.3-3-4.9-5.7-10.5-6.3-12.7s-0.2-3.5 0.4-4.3c0.7-1 1.9-1.5 3.3-1.5 1.9 0 3.9 1.6 5.6 3.7v-16.5c0-2.7 2.2-4.8 4.8-4.8s4.8 2.2 4.8 4.8v6.7c0.5-0.2 1-0.3 1.6-0.3 1.7 0 3.2 0.9 4.1 2.2 0.7-0.4 1.5-0.6 2.4-0.6 2.2 0 4.1 1.5 4.6 3.5 0.5-0.2 1.1-0.3 1.8-0.3 2.7 0 4.8 2.2 4.8 4.8v4.8c0 4.1-0.8 7.5-1.6 10.7-0.8 3.3-1.6 6.3-1.6 10.1 0 0.9-0.7 1.7-1.6 1.7z" fill="#fff"/></g><g transform="translate(232 478)"><path  d="m-185.6-421.9h-19.3c-0.9 0-1.6-0.7-1.6-1.6 0-2.5-1.2-3.9-3-6.1-1-1.2-2.1-2.6-3.2-4.3-3-4.9-5.7-10.5-6.3-12.7s-0.2-3.5 0.4-4.3c0.7-1 1.9-1.5 3.3-1.5 1.9 0 3.9 1.6 5.6 3.7v-16.5c0-2.7 2.2-4.8 4.8-4.8s4.8 2.2 4.8 4.8v6.7c0.5-0.2 1-0.3 1.6-0.3 1.7 0 3.2 0.9 4.1 2.2 0.7-0.4 1.5-0.6 2.4-0.6 2.2 0 4.1 1.5 4.6 3.5 0.5-0.2 1.1-0.3 1.8-0.3 2.7 0 4.8 2.2 4.8 4.8v4.8c0 4.1-0.8 7.5-1.6 10.7-0.8 3.3-1.6 6.3-1.6 10.1 0 0.9-0.7 1.7-1.6 1.7zm-17.7-3.2h16.2c0.2-3.5 0.9-6.4 1.6-9.3 0.8-3.2 1.5-6.3 1.5-10v-5.1c0-0.9-0.7-1.6-1.6-1.6s-1.6 0.7-1.6 1.6v1.9c0 0.9-0.7 1.6-1.6 1.6s-1.6-0.7-1.6-1.6v-5.1c0-0.9-0.7-1.6-1.6-1.6s-1.6 0.7-1.6 1.6v3.5c0 0.9-0.7 1.6-1.6 1.6s-1.6-0.7-1.6-1.6v-5.1c0-0.9-0.7-1.6-1.6-1.6s-1.6 0.7-1.6 1.6v3.5c0 0.9-0.7 1.6-1.6 1.6s-1.6-0.7-1.6-1.6v-14.8c0-0.9-0.7-1.6-1.6-1.6s-1.6 0.7-1.6 1.6v24.4c0 0.9-0.7 1.6-1.6 1.6s-1.6-0.7-1.6-1.6v-1.3c-1.4-3.7-4.6-6.9-5.6-6.9-0.4 0-0.6 0.1-0.7 0.4-0.1 0.2-0.2 0.7 0 1.4 0.5 1.7 3 6.9 6.1 12 1 1.6 2 2.8 3 4 1.6 2 3 3.8 3.5 6.5z"/></g></svg>